<svg xmlns="http://www.w3.org/2000/svg" aria-hidden="true" style="position:absolute;width:0;height:0;overflow:hidden">
<defs>
    <symbol id="icon-heart-black" viewBox="0 0 32 32"><path d="m16 13.139-1.788-3.578c-.444-.886-1.214-2.16-2.304-3.19C10.836 5.357 9.552 4.667 8 4.667c-3.352 0-6 2.652-6 5.84 0 2.422 1.108 4.132 3.736 6.74.674.668 1.442 1.39 2.292 2.186C10.244 21.513 13 24.101 16 27.561c3-3.46 5.756-6.048 7.972-8.128.85-.796 1.62-1.52 2.292-2.186C28.892 14.639 30 12.929 30 10.507c0-3.188-2.648-5.84-6-5.84-1.554 0-2.836.69-3.908 1.704-1.09 1.03-1.86 2.304-2.304 3.19L16 13.139zm.784 16.584a1.022 1.022 0 0 1-1.216.269 1.04 1.04 0 0 1-.352-.269c-3.202-3.804-6.1-6.524-8.486-8.762C2.6 17.083 0 14.645 0 10.507c0-4.33 3.58-7.84 8-7.84 3.2 0 5.438 2.1 6.808 4.016.52.73.916 1.432 1.192 1.984.346-.691.745-1.354 1.192-1.984C18.562 4.765 20.8 2.667 24 2.667c4.42 0 8 3.51 8 7.84 0 4.138-2.6 6.576-6.73 10.454-2.386 2.24-5.284 4.962-8.486 8.762z"/></symbol>
    <symbol id="icon-heart-red" viewBox="0 0 32 32"><path fill="#e44848" d="m16 13.139-1.788-3.578c-.444-.886-1.214-2.16-2.304-3.19C10.836 5.357 9.552 4.667 8 4.667c-3.352 0-6 2.652-6 5.84 0 2.422 1.108 4.132 3.736 6.74.674.668 1.442 1.39 2.292 2.186C10.244 21.513 13 24.101 16 27.561c3-3.46 5.756-6.048 7.972-8.128.85-.796 1.62-1.52 2.292-2.186C28.892 14.639 30 12.929 30 10.507c0-3.188-2.648-5.84-6-5.84-1.554 0-2.836.69-3.908 1.704-1.09 1.03-1.86 2.304-2.304 3.19L16 13.139zm.784 16.584a1.022 1.022 0 0 1-1.216.269 1.04 1.04 0 0 1-.352-.269c-3.202-3.804-6.1-6.524-8.486-8.762C2.6 17.083 0 14.645 0 10.507c0-4.33 3.58-7.84 8-7.84 3.2 0 5.438 2.1 6.808 4.016.52.73.916 1.432 1.192 1.984.346-.691.745-1.354 1.192-1.984C18.562 4.765 20.8 2.667 24 2.667c4.42 0 8 3.51 8 7.84 0 4.138-2.6 6.576-6.73 10.454-2.386 2.24-5.284 4.962-8.486 8.762z" style="fill:var(--color1, #e44848)"/></symbol>
<symbol id="icon-star" viewBox="0 0 32 32"><path fill="#ffc531" d="M15.116 1.676a1 1 0 0 1 1.769 0l3.777 7.158c.145.274.408.466.714.519l7.975 1.38a1 1 0 0 1 .547 1.682l-5.641 5.804a1 1 0 0 0-.273.839l1.152 8.01a1 1 0 0 1-1.431 1.04l-7.263-3.571a.998.998 0 0 0-.882 0l-7.262 3.571a1 1 0 0 1-1.431-1.04l1.152-8.01a1 1 0 0 0-.273-.839l-5.64-5.804a1 1 0 0 1 .547-1.682l7.974-1.38a.998.998 0 0 0 .714-.519l3.776-7.158z" style="fill:var(--color2, #ffc531)"/></symbol>
<symbol id="icon-star-empty" viewBox="0 0 32 32"><path fill="#f2f4f7" d="M15.116 1.676a1 1 0 0 1 1.769 0l3.777 7.158c.145.274.408.466.714.519l7.975 1.38a1 1 0 0 1 .547 1.682l-5.641 5.804a1 1 0 0 0-.273.839l1.152 8.01a1 1 0 0 1-1.431 1.04l-7.263-3.571a.998.998 0 0 0-.882 0l-7.262 3.571a1 1 0 0 1-1.431-1.04l1.152-8.01a1 1 0 0 0-.273-.839l-5.64-5.804a1 1 0 0 1 .547-1.682l7.974-1.38a.998.998 0 0 0 .714-.519l3.776-7.158z" style="fill:var(--color3, #f2f4f7)"/></symbol></defs></svg>